<svg width="65" height="62" viewBox="0 0 65 62" fill="none" xmlns="http://www.w3.org/2000/svg">
<circle cx="31.4856" cy="31" r="31" fill="#D9D9D9" fill-opacity="0.5"/>
<circle cx="21.4856" cy="13" r="10" fill="#305DFC"/>
<ellipse cx="12.9856" cy="31" rx="12.5" ry="10" fill="#03A4FF" fill-opacity="0.5"/>
<ellipse cx="51.1593" cy="38.7268" rx="10" ry="14.5" transform="rotate(16.3308 51.1593 38.7268)" fill="#6591EF"/>
<ellipse cx="38.4307" cy="21.3881" rx="10.407" ry="18.7093" transform="rotate(26.5549 38.4307 21.3881)" fill="#0151FD"/>
<ellipse cx="28.9856" cy="49.5" rx="11.5" ry="12.5" fill="#1D50BD"/>
<path d="M13.2306 48.0174C18.2757 52.9976 21.8217 57.5857 21.1508 58.2653C20.4799 58.9449 15.5307 58.4801 10.4856 53.5C5.44058 48.5198 2.21022 40.9102 2.88109 40.2306C3.55195 39.5509 8.18561 43.0372 13.2306 48.0174Z" fill="#6591EF"/>
<g filter="url(#filter0_b_69_112)">
<circle cx="31.4856" cy="31" r="31" fill="#D9D9D9" fill-opacity="0.2"/>
</g>
<path fill-rule="evenodd" clip-rule="evenodd" d="M21.2875 21.1567C20.0708 22.705 19.3333 24.82 19.3333 27.0292C19.3333 28.31 19.5533 29.5367 19.9417 30.7042H27.1792L30.0025 25.6842L31.7667 31.8592L33.925 29.0833H39.3333V30.75H34.7417L31.0667 35.475L29.4975 29.9825L28.1542 32.37H16V30.7033H18.1967C17.8471 29.5096 17.6686 28.2722 17.6667 27.0283C17.6667 24.4658 18.5175 21.9833 19.9767 20.1267C21.44 18.265 23.5467 17 26.0267 17C28.9458 17 31.1658 18.6358 32.6667 20.945C34.1667 18.6367 36.3875 17 39.3075 17C41.7867 17 43.8942 18.265 45.3575 20.1275C46.815 21.9833 47.6667 24.4667 47.6667 27.0292C47.6667 32.5142 43.88 37.095 40.2983 40.2217C38.1188 42.1089 35.7462 43.7608 33.22 45.15L33.0942 45.2167L33.0608 45.235L33.0508 45.2392L33.0483 45.2408C33.0483 45.2408 33.0467 45.2417 32.6667 44.5L32.305 45.25L32.3 45.2483L32.2883 45.2425L32.2467 45.2217C32.0013 45.0986 31.758 44.9717 31.5167 44.8408C30.8396 44.4723 30.1743 44.0827 29.5217 43.6725C27.8958 42.6525 25.7633 41.15 23.7567 39.2283C22.6867 38.2033 21.6483 37.0533 20.74 35.7883C20.6726 35.6997 20.6236 35.5984 20.5959 35.4905C20.5683 35.3826 20.5626 35.2703 20.5791 35.1602C20.5956 35.05 20.634 34.9443 20.6921 34.8493C20.7502 34.7542 20.8267 34.6718 20.9172 34.6068C21.0077 34.5419 21.1102 34.4957 21.2189 34.4711C21.3275 34.4464 21.4399 34.4438 21.5496 34.4634C21.6592 34.4829 21.7638 34.5243 21.8572 34.585C21.9506 34.6456 22.0309 34.7244 22.0933 34.8167C22.9308 35.9833 23.8983 37.0558 24.91 38.025C26.8092 39.845 28.8433 41.2792 30.4075 42.2608C31.1407 42.7214 31.8907 43.1547 32.6558 43.56L32.8658 43.4425C35.1202 42.1631 37.2425 40.6639 39.2017 38.9667C42.7033 35.9092 46 31.7542 46 27.0283C46 24.82 45.2625 22.7042 44.0467 21.1558C42.8333 19.6142 41.1775 18.6667 39.3075 18.6667C36.7217 18.6667 34.7158 20.35 33.415 23.0017L32.6667 24.525L31.9183 23.0017C30.6175 20.35 28.6117 18.6667 26.0267 18.6667C24.1558 18.6667 22.5 19.6133 21.2875 21.1567ZM32.6667 44.5L32.305 45.25L32.6783 45.4308L33.0475 45.2417L32.6667 44.5Z" fill="#FAFBFF"/>
<defs>
<filter id="filter0_b_69_112" x="-19.5144" y="-20" width="102" height="102" filterUnits="userSpaceOnUse" color-interpolation-filters="sRGB">
<feFlood flood-opacity="0" result="BackgroundImageFix"/>
<feGaussianBlur in="BackgroundImageFix" stdDeviation="10"/>
<feComposite in2="SourceAlpha" operator="in" result="effect1_backgroundBlur_69_112"/>
<feBlend mode="normal" in="SourceGraphic" in2="effect1_backgroundBlur_69_112" result="shape"/>
</filter>
</defs>
</svg>
